<svg xmlns="http://www.w3.org/2000/svg" xmlns:xlink="http://www.w3.org/1999/xlink" width="1200" height="1400" viewBox="0 0 1200 1400">
  <rect width="100%" height="100%" fill="none"/>
  <text x="600" y="350" fill="#2E4057" font-family="Georgia, serif" font-size="260" letter-spacing="12" font-weight="500" text-anchor="middle">SOUL</text>
  <text x="600" y="1100" fill="#2E4057" font-family="Georgia, serif" font-size="260" letter-spacing="12" font-weight="500" text-anchor="middle">FUEL</text>
  <!-- Flame icon - centered between SOUL and FUEL -->
  <g transform="translate(330, 420)">
    <svg width="540" height="540" viewBox="0 0 1500 1500">
      <defs><clipPath id="flame-clip"><path d="M 198.441406 184.222656 L 1301.691406 184.222656 L 1301.691406 1315.972656 L 198.441406 1315.972656 Z M 198.441406 184.222656 " clip-rule="nonzero"/></clipPath></defs>
      <g clip-path="url(#flame-clip)">
        <path d="M750 200 C550 350, 400 550, 450 800 C480 950, 600 1100, 750 1100 C900 1100, 1020 950, 1050 800 C1100 550, 950 350, 750 200 Z" fill="#2E4057"/>
        <path d="M750 550 C650 700, 650 850, 750 950 C850 850, 850 700, 750 550 Z" fill="#FAFAF8"/>
      </g>
    </svg>
  </g>
</svg>