<svg version="1.1" id="Layer_1" xmlns="http://www.w3.org/2000/svg" xmlns:xlink="http://www.w3.org/1999/xlink" x="0px" y="0px"
	 width="100%" viewBox="0 0 1536 1024" enable-background="new 0 0 1536 1024" xml:space="preserve">
<path fill="#FBF7F4" opacity="1.000000" stroke="none" 
	d="
M1437.000000,1025.000000 
	C958.000000,1025.000000 479.500000,1025.000000 1.000000,1025.000000 
	C1.000000,683.666687 1.000000,342.333344 1.000000,1.000000 
	C513.000000,1.000000 1025.000000,1.000000 1537.000000,1.000000 
	C1537.000000,342.333344 1537.000000,683.666687 1537.000000,1025.000000 
	C1503.833374,1025.000000 1470.666626,1025.000000 1437.000000,1025.000000 
M522.739014,520.259644 
	C528.160278,510.723999 529.916077,500.583252 527.274353,489.901276 
	C522.329895,469.908325 504.506744,457.409027 481.998779,458.500946 
	C465.076935,459.321899 451.674255,466.556122 444.733826,482.610413 
	C438.124390,497.899017 440.454163,512.599976 451.393585,525.068604 
	C469.253021,545.424438 507.896332,544.949158 522.739014,520.259644 
M1063.274780,534.791260 
	C1056.530762,534.791260 1049.786865,534.791260 1042.755371,534.791260 
	C1042.755371,522.629700 1042.755371,511.061462 1042.755371,499.169556 
	C1047.457153,499.169556 1051.769775,499.297668 1056.072144,499.141113 
	C1063.473022,498.871796 1070.751465,498.672577 1074.085205,507.484772 
	C1074.085205,501.341766 1074.085205,495.198730 1074.085205,489.763550 
	C1071.366455,491.821747 1068.865723,495.262726 1066.034424,495.560364 
	C1058.370728,496.366058 1050.566528,495.836426 1042.847290,495.836426 
	C1042.847290,485.234009 1042.847290,474.683563 1042.847290,463.615509 
	C1056.568604,464.676300 1071.838013,458.765778 1079.980347,476.419525 
	C1080.264526,476.036285 1080.548706,475.653076 1080.832764,475.269836 
	C1080.109375,470.475098 1079.385864,465.680359 1078.683350,461.024292 
	C1060.207397,461.024292 1042.231445,461.024292 1024.255493,461.024292 
	C1029.978516,462.823578 1030.395996,467.086975 1030.365723,471.945435 
	C1030.259155,489.096497 1030.390747,506.248871 1030.341431,523.400513 
	C1030.326172,528.731079 1032.072998,534.949585 1024.448975,537.273071 
	C1043.503052,537.273071 1062.557007,537.273071 1081.830078,537.273071 
	C1083.061279,532.172180 1084.226562,527.344727 1085.671875,521.356445 
	C1071.512451,533.261169 1071.512451,533.261169 1063.274780,534.791260 
M770.477722,487.025757 
	C773.602722,482.712341 777.020081,478.578247 779.796936,474.051270 
	C787.550842,461.410187 786.505981,448.145355 776.830933,437.167236 
	C777.306396,454.443207 768.369812,466.394867 756.371704,476.795135 
	C753.110779,479.621765 750.083313,482.773529 747.269592,486.051514 
	C726.612427,510.117065 743.336304,536.667908 766.875000,543.071533 
	C765.707336,542.000854 764.993958,541.357849 764.292603,540.701965 
	C754.775635,531.803711 751.462158,519.301147 756.964355,507.512451 
	C760.289368,500.388336 765.613892,494.197449 770.477722,487.025757 
M979.887695,533.941772 
	C963.158142,538.636780 945.337097,534.970032 943.617065,510.419189 
	C942.757568,498.151672 943.460449,485.781158 943.188293,473.463135 
	C943.066772,467.963531 943.335815,463.044800 949.794006,461.017822 
	C941.635010,461.017822 933.476074,461.017822 925.317078,461.017822 
	C930.832581,462.820404 931.846863,466.805206 931.783264,471.775208 
	C931.621338,484.436768 931.692932,497.101227 931.643433,509.764374 
	C931.592102,522.886658 938.159912,532.712524 950.561035,536.710876 
	C955.713989,538.372192 961.312927,539.396362 966.713196,539.413208 
	C988.136414,539.480103 998.135681,529.155273 998.152039,507.733368 
	C998.160278,496.902832 998.234924,486.072388 998.281372,475.241882 
	C998.306213,469.464081 998.275879,463.656555 1005.260803,461.028625 
	C998.707275,461.028625 992.153809,461.028625 985.600281,461.028625 
	C991.655518,463.081085 994.338745,467.416229 994.362976,473.299927 
	C994.419800,487.122345 994.661194,500.970612 993.922424,514.759888 
	C993.463684,523.322754 989.350891,530.376038 979.887695,533.941772 
M609.210449,460.674438 
	C608.247864,460.811401 607.285217,460.948364 606.322632,461.085327 
	C613.218201,462.701782 614.674927,467.965149 614.793518,473.438629 
	C615.078552,486.592102 615.121460,499.764282 614.734314,512.913391 
	C614.535034,519.682983 612.589111,526.331909 606.704651,530.522888 
	C597.993652,536.727051 588.181030,536.904541 578.550659,533.411011 
	C569.887451,530.268311 566.316467,522.742432 565.915527,514.082825 
	C565.300171,500.791168 565.447388,487.465973 565.062256,474.161011 
	C564.901428,468.604034 564.490417,463.202942 571.431824,461.068542 
	C563.223511,461.068542 555.015198,461.068542 545.789917,461.068542 
	C552.663513,464.433838 553.208923,465.381378 553.193359,472.377563 
	C553.166199,484.540802 553.131104,496.704102 553.147766,508.867340 
	C553.169312,524.589539 560.905212,535.161072 576.244019,538.223633 
	C596.708862,542.309753 620.169312,538.108337 618.792358,505.903564 
	C618.323059,494.928650 618.855042,483.913391 618.795044,472.917297 
	C618.766663,467.712158 619.762695,463.260193 625.351685,460.680359 
	C620.254822,460.680359 615.157898,460.680359 609.210449,460.674438 
M417.478607,504.025055 
	C412.145782,501.001617 406.923584,497.757507 401.450592,495.013611 
	C395.361969,491.961060 388.893829,489.650757 382.875610,486.477356 
	C378.129303,483.974579 375.598694,479.596497 376.144562,474.051086 
	C376.669739,468.716278 380.064087,465.338440 384.731384,463.247772 
	C395.350128,458.491180 407.809265,462.099274 414.343811,471.695801 
	C415.479218,473.363220 416.630493,475.019867 417.774445,476.681458 
	C418.344879,472.376587 418.197937,468.451752 417.776062,464.556702 
	C417.673950,463.614075 416.868073,462.432861 416.040436,461.931793 
	C406.530579,456.173950 383.013031,457.562592 374.193329,464.302582 
	C363.704865,472.317810 364.420349,487.923004 375.809021,494.631348 
	C380.228455,497.234589 385.146729,498.982727 389.801086,501.197510 
	C395.350098,503.837982 401.021301,506.279022 406.342773,509.324951 
	C412.089600,512.614258 414.632538,517.907776 413.422424,524.552124 
	C412.188873,531.325317 407.445343,534.725281 401.126648,536.079346 
	C389.142395,538.647461 379.011078,535.954773 371.780090,525.325684 
	C370.331116,523.195740 368.531738,521.304138 366.893890,519.302673 
	C366.525635,522.173828 367.539490,524.477905 367.362579,526.686646 
	C366.717499,534.740662 371.916077,536.568298 378.201080,537.830505 
	C390.361298,540.272461 402.396484,541.279724 413.644897,534.667419 
	C425.163330,527.896423 427.005707,514.352173 417.478607,504.025055 
M868.162476,475.502502 
	C868.162476,471.733002 868.162476,467.963501 868.162476,463.853088 
	C873.505066,463.853088 878.341553,464.205261 883.108826,463.780243 
	C893.249695,462.876099 901.080994,466.051025 905.916199,475.379608 
	C905.999084,475.539551 906.463135,475.501923 907.466797,475.693329 
	C906.678040,470.629272 905.930054,465.827087 905.180237,461.012970 
	C886.305237,461.012970 867.956116,461.012970 849.606934,461.012970 
	C856.321655,462.642853 856.292969,467.581696 856.251343,472.913910 
	C856.117432,490.064148 856.184692,507.216522 856.273376,524.367554 
	C856.301636,529.825867 856.969360,535.461914 849.514709,537.107666 
	C858.233215,537.107666 866.951660,537.107666 874.224304,537.107666 
	C872.442505,534.967285 868.693237,532.541382 868.493347,529.851562 
	C867.758728,519.966431 868.201904,509.993713 868.201904,499.401520 
	C872.773804,499.401520 876.891907,499.411621 881.010010,499.399292 
	C888.485779,499.376923 896.234253,498.717133 899.957825,507.608276 
	C899.957825,501.463959 899.957825,495.319672 899.957825,489.773651 
	C897.396362,491.845215 894.971985,495.443604 892.198364,495.736694 
	C884.399170,496.560944 876.456116,496.024353 868.166504,496.024353 
	C868.166504,489.445251 868.166504,482.973267 868.162476,475.502502 
M1110.055176,526.230103 
	C1110.896606,531.639038 1108.735718,535.163940 1103.004395,536.396301 
	C1103.717651,536.939636 1103.976440,537.309509 1104.237549,537.311096 
	C1122.221191,537.423157 1140.205200,537.537781 1158.188599,537.500244 
	C1159.132812,537.498230 1160.635010,536.357727 1160.919678,535.447754 
	C1162.143677,531.533264 1163.009888,527.506836 1163.882568,524.016357 
	C1157.469727,527.424561 1151.395874,532.185974 1144.566162,533.855713 
	C1137.588501,535.561707 1129.869141,534.233398 1122.113892,534.233398 
	C1122.113892,532.247314 1122.116455,530.436279 1122.113403,528.625305 
	C1122.081909,510.131958 1122.193970,491.636536 1121.927734,473.146545 
	C1121.849487,467.717712 1122.236572,463.137604 1128.377441,461.029297 
	C1120.119751,461.029297 1111.862061,461.029297 1103.604248,461.029297 
	C1109.627197,463.006744 1110.134521,467.578857 1110.095337,472.807739 
	C1109.964111,490.300781 1110.051025,507.795471 1110.055176,526.230103 
M653.559448,460.737854 
	C650.295837,460.737854 647.032227,460.737854 643.768616,460.737854 
	C643.544800,461.206879 643.320923,461.675903 643.097107,462.144958 
	C649.854248,462.659760 650.169373,467.039459 650.139771,471.885895 
	C650.031006,489.718292 649.926941,507.552887 650.112854,525.383606 
	C650.167236,530.597046 649.707336,535.000916 643.895569,537.196228 
	C662.577209,537.196228 681.258850,537.196228 700.194092,537.196228 
	C701.443298,532.756470 702.694946,528.307922 703.946655,523.859436 
	C703.606262,523.465942 703.265869,523.072510 702.925537,522.679016 
	C692.030701,536.891846 677.104309,535.390137 661.963806,534.422913 
	C661.963806,513.848755 662.106018,493.530304 661.869080,473.216217 
	C661.805664,467.777588 662.204651,463.208862 668.259399,460.732819 
	C663.684448,460.732819 659.109558,460.732819 653.559448,460.737854 
M780.796753,496.197235 
	C776.338440,501.996521 771.282654,507.438171 767.551270,513.672485 
	C760.646606,525.208801 763.844604,539.291321 774.342468,546.145813 
	C771.458130,536.162659 774.510498,528.046265 781.429871,520.934509 
	C784.674255,517.599792 787.839233,514.116211 790.550171,510.347626 
	C798.597046,499.161438 797.971619,483.225830 789.310608,474.521149 
	C789.100769,482.561493 785.993103,489.408142 780.796753,496.197235 
M804.613281,494.146118 
	C804.467590,494.066040 804.329834,493.952271 804.173950,493.915863 
	C804.033997,493.883209 803.742188,493.932434 803.741699,493.951050 
	C803.683350,496.353790 803.864563,498.784393 803.568481,501.155487 
	C802.411804,510.419708 797.585999,517.517944 790.333252,523.177063 
	C785.864014,526.664246 782.163696,530.793030 779.389954,536.372803 
	C786.486938,532.979309 792.925049,530.300720 798.968079,526.916565 
	C807.809998,521.965027 811.011108,513.877380 808.416748,504.046234 
	C807.576172,500.860931 806.138245,497.833221 804.613281,494.146118 
z"/>
<path fill="#3A4E62" opacity="1.000000" stroke="none" 
	d="
M522.532959,520.556641 
	C507.896332,544.949158 469.253021,545.424438 451.393585,525.068604 
	C440.454163,512.599976 438.124390,497.899017 444.733826,482.610413 
	C451.674255,466.556122 465.076935,459.321899 481.998779,458.500946 
	C504.506744,457.409027 522.329895,469.908325 527.274353,489.901276 
	C529.916077,500.583252 528.160278,510.723999 522.532959,520.556641 
M456.311096,482.129700 
	C452.160034,500.182404 454.684265,516.605957 468.437988,530.066772 
	C479.318024,540.715149 500.067810,538.616882 508.665009,526.183777 
	C519.038696,511.181702 517.350342,485.111633 505.124634,471.514740 
	C489.443542,454.074768 464.348785,459.168915 456.311096,482.129700 
z"/>
<path fill="#3C5265" opacity="1.000000" stroke="none" 
	d="
M1063.738159,534.737427 
	C1071.512451,533.261169 1071.512451,533.261169 1085.671875,521.356445 
	C1084.226562,527.344727 1083.061279,532.172180 1081.830078,537.273071 
	C1062.557007,537.273071 1043.503052,537.273071 1024.448975,537.273071 
	C1032.072998,534.949585 1030.326172,528.731079 1030.341431,523.400513 
	C1030.390747,506.248871 1030.259155,489.096497 1030.365723,471.945435 
	C1030.395996,467.086975 1029.978516,462.823578 1024.255493,461.024292 
	C1042.231445,461.024292 1060.207397,461.024292 1078.683350,461.024292 
	C1079.385864,465.680359 1080.109375,470.475098 1080.832764,475.269836 
	C1080.548706,475.653076 1080.264526,476.036285 1079.980347,476.419525 
	C1071.838013,458.765778 1056.568604,464.676300 1042.847290,463.615509 
	C1042.847290,474.683563 1042.847290,485.234009 1042.847290,495.836426 
	C1050.566528,495.836426 1058.370728,496.366058 1066.034424,495.560364 
	C1068.865723,495.262726 1071.366455,491.821747 1074.085205,489.763550 
	C1074.085205,495.198730 1074.085205,501.341766 1074.085205,507.484772 
	C1070.751465,498.672577 1063.473022,498.871796 1056.072144,499.141113 
	C1051.769775,499.297668 1047.457153,499.169556 1042.755371,499.169556 
	C1042.755371,511.061462 1042.755371,522.629700 1042.755371,534.791260 
	C1049.786865,534.791260 1056.530762,534.791260 1063.738159,534.737427 
z"/>
<path fill="#384D61" opacity="1.000000" stroke="none" 
	d="
M770.258911,487.306519 
	C765.613892,494.197449 760.289368,500.388336 756.964355,507.512451 
	C751.462158,519.301147 754.775635,531.803711 764.292603,540.701965 
	C764.993958,541.357849 765.707336,542.000854 766.875000,543.071533 
	C743.336304,536.667908 726.612427,510.117065 747.269592,486.051514 
	C750.083313,482.773529 753.110779,479.621765 756.371704,476.795135 
	C768.369812,466.394867 777.306396,454.443207 776.830933,437.167236 
	C786.505981,448.145355 787.550842,461.410187 779.796936,474.051270 
	C777.020081,478.578247 773.602722,482.712341 770.258911,487.306519 
z"/>
<path fill="#3A4E62" opacity="1.000000" stroke="none" 
	d="
M980.268311,533.810181 
	C989.350891,530.376038 993.463684,523.322754 993.922424,514.759888 
	C994.661194,500.970612 994.419800,487.122345 994.362976,473.299927 
	C994.338745,467.416229 991.655518,463.081085 985.600281,461.028625 
	C992.153809,461.028625 998.707275,461.028625 1005.260803,461.028625 
	C998.275879,463.656555 998.306213,469.464081 998.281372,475.241882 
	C998.234924,486.072388 998.160278,496.902832 998.152039,507.733368 
	C998.135681,529.155273 988.136414,539.480103 966.713196,539.413208 
	C961.312927,539.396362 955.713989,538.372192 950.561035,536.710876 
	C938.159912,532.712524 931.592102,522.886658 931.643433,509.764374 
	C931.692932,497.101227 931.621338,484.436768 931.783264,471.775208 
	C931.846863,466.805206 930.832581,462.820404 925.317078,461.017822 
	C933.476074,461.017822 941.635010,461.017822 949.794006,461.017822 
	C943.335815,463.044800 943.066772,467.963531 943.188293,473.463135 
	C943.460449,485.781158 942.757568,498.151672 943.617065,510.419189 
	C945.337097,534.970032 963.158142,538.636780 980.268311,533.810181 
z"/>
<path fill="#3C5265" opacity="1.000000" stroke="none" 
	d="
M609.635742,460.677399 
	C615.157898,460.680359 620.254822,460.680359 625.351685,460.680359 
	C619.762695,463.260193 618.766663,467.712158 618.795044,472.917297 
	C618.855042,483.913391 618.323059,494.928650 618.792358,505.903564 
	C620.169312,538.108337 596.708862,542.309753 576.244019,538.223633 
	C560.905212,535.161072 553.169312,524.589539 553.147766,508.867340 
	C553.131104,496.704102 553.166199,484.540802 553.193359,472.377563 
	C553.208923,465.381378 552.663513,464.433838 545.789917,461.068542 
	C555.015198,461.068542 563.223511,461.068542 571.431824,461.068542 
	C564.490417,463.202942 564.901428,468.604034 565.062256,474.161011 
	C565.447388,487.465973 565.300171,500.791168 565.915527,514.082825 
	C566.316467,522.742432 569.887451,530.268311 578.550659,533.411011 
	C588.181030,536.904541 597.993652,536.727051 606.704651,530.522888 
	C612.589111,526.331909 614.535034,519.682983 614.734314,512.913391 
	C615.121460,499.764282 615.078552,486.592102 614.793518,473.438629 
	C614.674927,467.965149 613.218201,462.701782 606.322632,461.085327 
	C607.285217,460.948364 608.247864,460.811401 609.635742,460.677399 
z"/>
<path fill="#3B4F63" opacity="1.000000" stroke="none" 
	d="
M417.730286,504.275696 
	C427.005707,514.352173 425.163330,527.896423 413.644897,534.667419 
	C402.396484,541.279724 390.361298,540.272461 378.201080,537.830505 
	C371.916077,536.568298 366.717499,534.740662 367.362579,526.686646 
	C367.539490,524.477905 366.525635,522.173828 366.893890,519.302673 
	C368.531738,521.304138 370.331116,523.195740 371.780090,525.325684 
	C379.011078,535.954773 389.142395,538.647461 401.126648,536.079346 
	C407.445343,534.725281 412.188873,531.325317 413.422424,524.552124 
	C414.632538,517.907776 412.089600,512.614258 406.342773,509.324951 
	C401.021301,506.279022 395.350098,503.837982 389.801086,501.197510 
	C385.146729,498.982727 380.228455,497.234589 375.809021,494.631348 
	C364.420349,487.923004 363.704865,472.317810 374.193329,464.302582 
	C383.013031,457.562592 406.530579,456.173950 416.040436,461.931793 
	C416.868073,462.432861 417.673950,463.614075 417.776062,464.556702 
	C418.197937,468.451752 418.344879,472.376587 417.774445,476.681458 
	C416.630493,475.019867 415.479218,473.363220 414.343811,471.695801 
	C407.809265,462.099274 395.350128,458.491180 384.731384,463.247772 
	C380.064087,465.338440 376.669739,468.716278 376.144562,474.051086 
	C375.598694,479.596497 378.129303,483.974579 382.875610,486.477356 
	C388.893829,489.650757 395.361969,491.961060 401.450592,495.013611 
	C406.923584,497.757507 412.145782,501.001617 417.730286,504.275696 
z"/>
<path fill="#3C5265" opacity="1.000000" stroke="none" 
	d="
M868.164490,476.001892 
	C868.166504,482.973267 868.166504,489.445251 868.166504,496.024353 
	C876.456116,496.024353 884.399170,496.560944 892.198364,495.736694 
	C894.971985,495.443604 897.396362,491.845215 899.957825,489.773651 
	C899.957825,495.319672 899.957825,501.463959 899.957825,507.608276 
	C896.234253,498.717133 888.485779,499.376923 881.010010,499.399292 
	C876.891907,499.411621 872.773804,499.401520 868.201904,499.401520 
	C868.201904,509.993713 867.758728,519.966431 868.493347,529.851562 
	C868.693237,532.541382 872.442505,534.967285 874.224304,537.107666 
	C866.951660,537.107666 858.233215,537.107666 849.514709,537.107666 
	C856.969360,535.461914 856.301636,529.825867 856.273376,524.367554 
	C856.184692,507.216522 856.117432,490.064148 856.251343,472.913910 
	C856.292969,467.581696 856.321655,462.642853 849.606934,461.012970 
	C867.956116,461.012970 886.305237,461.012970 905.180237,461.012970 
	C905.930054,465.827087 906.678040,470.629272 907.466797,475.693329 
	C906.463135,475.501923 905.999084,475.539551 905.916199,475.379608 
	C901.080994,466.051025 893.249695,462.876099 883.108826,463.780243 
	C878.341553,464.205261 873.505066,463.853088 868.162476,463.853088 
	C868.162476,467.963501 868.162476,471.733002 868.164490,476.001892 
z"/>
<path fill="#3C5265" opacity="1.000000" stroke="none" 
	d="
M1110.054810,525.759827 
	C1110.051025,507.795471 1109.964111,490.300781 1110.095337,472.807739 
	C1110.134521,467.578857 1109.627197,463.006744 1103.604248,461.029297 
	C1111.862061,461.029297 1120.119751,461.029297 1128.377441,461.029297 
	C1122.236572,463.137604 1121.849487,467.717712 1121.927734,473.146545 
	C1122.193970,491.636536 1122.081909,510.131958 1122.113403,528.625305 
	C1122.116455,530.436279 1122.113892,532.247314 1122.113892,534.233398 
	C1129.869141,534.233398 1137.588501,535.561707 1144.566162,533.855713 
	C1151.395874,532.185974 1157.469727,527.424561 1163.882568,524.016357 
	C1163.009888,527.506836 1162.143677,531.533264 1160.919678,535.447754 
	C1160.635010,536.357727 1159.132812,537.498230 1158.188599,537.500244 
	C1140.205200,537.537781 1122.221191,537.423157 1104.237549,537.311096 
	C1103.976440,537.309509 1103.717651,536.939636 1103.004395,536.396301 
	C1108.735718,535.163940 1110.896606,531.639038 1110.054810,525.759827 
z"/>
<path fill="#3C5165" opacity="1.000000" stroke="none" 
	d="
M654.047058,460.735352 
	C659.109558,460.732819 663.684448,460.732819 668.259399,460.732819 
	C662.204651,463.208862 661.805664,467.777588 661.869080,473.216217 
	C662.106018,493.530304 661.963806,513.848755 661.963806,534.422913 
	C677.104309,535.390137 692.030701,536.891846 702.925537,522.679016 
	C703.265869,523.072510 703.606262,523.465942 703.946655,523.859436 
	C702.694946,528.307922 701.443298,532.756470 700.194092,537.196228 
	C681.258850,537.196228 662.577209,537.196228 643.895569,537.196228 
	C649.707336,535.000916 650.167236,530.597046 650.112854,525.383606 
	C649.926941,507.552887 650.031006,489.718292 650.139771,471.885895 
	C650.169373,467.039459 649.854248,462.659760 643.097107,462.144958 
	C643.320923,461.675903 643.544800,461.206879 643.768616,460.737854 
	C647.032227,460.737854 650.295837,460.737854 654.047058,460.735352 
z"/>
<path fill="#384D61" opacity="1.000000" stroke="none" 
	d="
M780.998413,495.896271 
	C785.993103,489.408142 789.100769,482.561493 789.310608,474.521149 
	C797.971619,483.225830 798.597046,499.161438 790.550171,510.347626 
	C787.839233,514.116211 784.674255,517.599792 781.429871,520.934509 
	C774.510498,528.046265 771.458130,536.162659 774.342468,546.145813 
	C763.844604,539.291321 760.646606,525.208801 767.551270,513.672485 
	C771.282654,507.438171 776.338440,501.996521 780.998413,495.896271 
z"/>
<path fill="#3C5265" opacity="1.000000" stroke="none" 
	d="
M804.793457,494.439758 
	C806.138245,497.833221 807.576172,500.860931 808.416748,504.046234 
	C811.011108,513.877380 807.809998,521.965027 798.968079,526.916565 
	C792.925049,530.300720 786.486938,532.979309 779.389954,536.372803 
	C782.163696,530.793030 785.864014,526.664246 790.333252,523.177063 
	C797.585999,517.517944 802.411804,510.419708 803.568481,501.155487 
	C803.864563,498.784393 803.683350,496.353790 803.741699,493.951050 
	C803.742188,493.932434 804.033997,493.883209 804.173950,493.915863 
	C804.329834,493.952271 804.467590,494.066040 804.793457,494.439758 
z"/>
<path fill="#F9F5F3" opacity="1.000000" stroke="none" 
	d="
M456.448242,481.748840 
	C464.348785,459.168915 489.443542,454.074768 505.124634,471.514740 
	C517.350342,485.111633 519.038696,511.181702 508.665009,526.183777 
	C500.067810,538.616882 479.318024,540.715149 468.437988,530.066772 
	C454.684265,516.605957 452.160034,500.182404 456.448242,481.748840 
z"/>
</svg>